<svg xmlns="http://www.w3.org/2000/svg" viewBox="0 0 800 800">
  <rect width="800" height="800" fill="#6b4f3a"></rect>
  <rect x="0" y="0" width="100" height="100" fill="#d9c3a3"></rect>
  <rect x="200" y="0" width="100" height="100" fill="#d9c3a3"></rect>
  <rect x="400" y="0" width="100" height="100" fill="#d9c3a3"></rect>
  <rect x="600" y="0" width="100" height="100" fill="#d9c3a3"></rect>
  <rect x="100" y="100" width="100" height="100" fill="#d9c3a3"></rect>
  <rect x="300" y="100" width="100" height="100" fill="#d9c3a3"></rect>
  <rect x="500" y="100" width="100" height="100" fill="#d9c3a3"></rect>
  <rect x="700" y="100" width="100" height="100" fill="#d9c3a3"></rect>
  <rect x="0" y="200" width="100" height="100" fill="#d9c3a3"></rect>
  <rect x="200" y="200" width="100" height="100" fill="#d9c3a3"></rect>
  <rect x="400" y="200" width="100" height="100" fill="#d9c3a3"></rect>
  <rect x="600" y="200" width="100" height="100" fill="#d9c3a3"></rect>
  <rect x="100" y="300" width="100" height="100" fill="#d9c3a3"></rect>
  <rect x="300" y="300" width="100" height="100" fill="#d9c3a3"></rect>
  <rect x="500" y="300" width="100" height="100" fill="#d9c3a3"></rect>
  <rect x="700" y="300" width="100" height="100" fill="#d9c3a3"></rect>
  <rect x="0" y="400" width="100" height="100" fill="#d9c3a3"></rect>
  <rect x="200" y="400" width="100" height="100" fill="#d9c3a3"></rect>
  <rect x="400" y="400" width="100" height="100" fill="#d9c3a3"></rect>
  <rect x="600" y="400" width="100" height="100" fill="#d9c3a3"></rect>
  <rect x="100" y="500" width="100" height="100" fill="#d9c3a3"></rect>
  <rect x="300" y="500" width="100" height="100" fill="#d9c3a3"></rect>
  <rect x="500" y="500" width="100" height="100" fill="#d9c3a3"></rect>
  <rect x="700" y="500" width="100" height="100" fill="#d9c3a3"></rect>
  <rect x="0" y="600" width="100" height="100" fill="#d9c3a3"></rect>
  <rect x="200" y="600" width="100" height="100" fill="#d9c3a3"></rect>
  <rect x="400" y="600" width="100" height="100" fill="#d9c3a3"></rect>
  <rect x="600" y="600" width="100" height="100" fill="#d9c3a3"></rect>
  <rect x="100" y="700" width="100" height="100" fill="#d9c3a3"></rect>
  <rect x="300" y="700" width="100" height="100" fill="#d9c3a3"></rect>
  <rect x="500" y="700" width="100" height="100" fill="#d9c3a3"></rect>
  <rect x="700" y="700" width="100" height="100" fill="#d9c3a3"></rect>
</svg>